<?xml version="1.0" standalone="no"?>
<!DOCTYPE svg PUBLIC "-//W3C//DTD SVG 20010904//EN"
 "http://www.w3.org/TR/2001/REC-SVG-20010904/DTD/svg10.dtd">
<svg version="1.0" xmlns="http://www.w3.org/2000/svg"
 width="695.000000pt" height="598.000000pt" viewBox="0 0 695.000000 598.000000"
 preserveAspectRatio="xMidYMid meet">

<g transform="translate(0.000000,598.000000) scale(0.100000,-0.100000)"
fill="#000000" stroke="none">
<path d="M166 5969 c-96 -13 -148 -43 -161 -93 -8 -32 -5 -51 16 -110 26 -73
2155 -3900 2255 -4054 60 -92 98 -132 125 -132 29 0 74 46 127 128 27 42 507
887 1067 1877 904 1600 1251 2212 1332 2353 l25 44 -304 -4 c-293 -3 -305 -4
-356 -27 -63 -28 -113 -83 -186 -201 -61 -98 -1447 -2557 -1556 -2760 -83
-154 -104 -186 -131 -200 -29 -16 -53 15 -154 202 -49 90 -360 649 -692 1243
-571 1022 -603 1082 -603 1129 0 122 135 195 245 133 37 -21 72 -80 525 -883
267 -473 500 -883 518 -912 47 -72 105 -122 142 -122 37 0 89 44 139 119 44
65 300 500 453 771 148 261 760 1364 792 1428 44 86 55 84 -315 80 l-319 -3
-34 -35 c-19 -19 -167 -266 -329 -549 -162 -283 -310 -535 -329 -560 -18 -25
-42 -47 -53 -49 -42 -6 -38 -14 -455 728 -122 217 -229 403 -238 414 -48 53
-22 51 -777 52 -385 1 -731 -2 -769 -7z"/>
<path d="M5328 5971 c-52 -11 -81 -32 -115 -88 -17 -26 -227 -401 -468 -833
-241 -432 -464 -831 -496 -886 l-57 -102 119 -198 c172 -287 221 -327 308
-248 22 19 55 58 73 87 18 28 250 436 515 907 347 616 490 862 513 879 46 36
125 41 180 10 75 -42 104 -120 72 -191 -10 -24 -289 -527 -619 -1118 -330
-591 -633 -1135 -673 -1209 -79 -147 -105 -187 -128 -196 -26 -10 -65 41 -137
175 -98 182 -418 751 -420 748 -7 -8 -344 -615 -347 -623 -4 -12 701 -1263
779 -1382 56 -85 93 -123 123 -123 25 0 66 44 125 135 53 81 2155 3845 2221
3976 44 87 61 163 45 202 -16 40 -81 66 -198 77 -112 11 -1359 11 -1415 1z"/>
</g>
</svg>
